<svg viewBox="0 0 200 200" xmlns="http://www.w3.org/2000/svg">
  <!-- Wings -->
  <ellipse cx="120" cy="80" rx="30" ry="20" fill="#C5E1F0" fill-opacity="0.6" transform="rotate(-15 120 80)" />
  <ellipse cx="120" cy="110" rx="25" ry="15" fill="#C5E1F0" fill-opacity="0.6" transform="rotate(-20 120 110)" />
  
  <!-- Body -->
  <ellipse cx="100" cy="100" rx="40" ry="30" fill="#FFC107" />
  
  <!-- Stripes -->
  <path d="M70,85 C80,80 120,80 130,85" fill="#8B4513" stroke="#8B4513" stroke-width="3" />
  <path d="M65,100 C80,95 120,95 135,100" fill="#8B4513" stroke="#8B4513" stroke-width="3" />
  <path d="M70,115 C80,110 120,110 130,115" fill="#8B4513" stroke="#8B4513" stroke-width="3" />
  
  <!-- Head -->
  <circle cx="60" cy="100" r="15" fill="#FFC107" />
  
  <!-- Eyes -->
  <circle cx="55" cy="95" r="4" fill="#FFFFFF" />
  <circle cx="55" cy="95" r="2" fill="#000000" />
  <circle cx="65" cy="95" r="4" fill="#FFFFFF" />
  <circle cx="65" cy="95" r="2" fill="#000000" />
  
  <!-- Smile -->
  <path d="M55,105 C58,108 62,108 65,105" fill="none" stroke="#000000" stroke-width="1.5" />
  
  <!-- Antennas -->
  <path d="M50,90 C45,80 50,70 55,65" fill="none" stroke="#000000" stroke-width="1.5" />
  <path d="M70,90 C75,80 70,70 65,65" fill="none" stroke="#000000" stroke-width="1.5" />
  <circle cx="55" cy="65" r="2" fill="#000000" />
  <circle cx="65" cy="65" r="2" fill="#000000" />
  
  <!-- Stinger -->
  <path d="M140,100 L150,100 L145,105 Z" fill="#8B4513" stroke="#000000" stroke-width="1" />
</svg>