<svg viewBox="0 0 200 200" xmlns="http://www.w3.org/2000/svg">
  <!-- Wings (smaller) -->
  <ellipse cx="115" cy="80" rx="25" ry="20" fill="#C5E1F0" fill-opacity="0.6" transform="rotate(-15 115 80)" />
  <ellipse cx="120" cy="100" rx="20" ry="15" fill="#C5E1F0" fill-opacity="0.6" transform="rotate(-20 120 100)" />
  
  <!-- Body (chubbier) -->
  <ellipse cx="90" cy="100" rx="50" ry="45" fill="#FFC107" />
  
  <!-- Stripes -->
  <path d="M60,80 C70,75 110,75 120,80" fill="#8B4513" stroke="#8B4513" stroke-width="3" />
  <path d="M55,100 C70,95 110,95 125,100" fill="#8B4513" stroke="#8B4513" stroke-width="3" />
  <path d="M65,120 C75,115 105,115 115,120" fill="#8B4513" stroke="#8B4513" stroke-width="3" />
  
  <!-- Head -->
  <circle cx="45" cy="90" r="22" fill="#FFC107" />
  
  <!-- Eyes (larger) -->
  <circle cx="35" cy="85" r="7" fill="#FFFFFF" />
  <circle cx="35" cy="85" r="3" fill="#000000" />
  <circle cx="50" cy="80" r="7" fill="#FFFFFF" />
  <circle cx="50" cy="80" r="3" fill="#000000" />
  
  <!-- Relaxed Smile -->
  <path d="M35,95 C40,98 45,98 50,95" fill="none" stroke="#000000" stroke-width="2" />
  
  <!-- Antennas -->
  <path d="M30,75 C25,65 30,55 35,50" fill="none" stroke="#000000" stroke-width="2" />
  <path d="M55,70 C60,60 55,50 50,45" fill="none" stroke="#000000" stroke-width="2" />
  <circle cx="35" cy="50" r="3" fill="#000000" />
  <circle cx="50" cy="45" r="3" fill="#000000" />
</svg>