<svg viewBox="0 0 200 200" xmlns="http://www.w3.org/2000/svg">
  <!-- Legs -->
  <rect x="40" y="160" width="8" height="20" rx="2" fill="#8B4513" />
  <rect x="152" y="160" width="8" height="20" rx="2" fill="#8B4513" />
  <rect x="60" y="160" width="8" height="20" rx="2" fill="#8B4513" />
  <rect x="132" y="160" width="8" height="20" rx="2" fill="#8B4513" />
  
  <!-- Base -->
  <rect x="35" y="150" width="130" height="10" rx="2" fill="#A0522D" />
  
  <!-- Main Hive Body -->
  <path d="M45,60 C45,50 155,50 155,60 L155,150 L45,150 Z" fill="#F5A623" stroke="#A0522D" stroke-width="3" />
  
  <!-- Hive Texture Lines -->
  <path d="M45,80 C45,75 155,75 155,80" stroke="#A0522D" stroke-width="3" fill="none" />
  <path d="M45,100 C45,95 155,95 155,100" stroke="#A0522D" stroke-width="3" fill="none" />
  <path d="M45,120 C45,115 155,115 155,120" stroke="#A0522D" stroke-width="3" fill="none" />
  
  <!-- Hive Roof -->
  <path d="M40,60 C40,40 160,40 160,60" fill="#A0522D" stroke="#8B4513" stroke-width="3" />
  
  <!-- Entrance Hole -->
  <ellipse cx="100" cy="130" rx="15" ry="10" fill="#5D4037" />
  
  <!-- Honey Drip (Optional) -->
  <path d="M105,75 C108,80 110,85 107,90 C104,95 100,90 100,95 C100,100 105,105 100,110" stroke="#FFD700" stroke-width="3" fill="none" />
</svg>