<svg viewBox="0 0 200 200" xmlns="http://www.w3.org/2000/svg">
  <!-- Honey Jar -->
  <path d="M70,50 Q70,40 100,40 Q130,40 130,50 L130,150 Q130,160 100,160 Q70,160 70,150 Z" fill="#FFC107" stroke="#8B4513" stroke-width="3" />
  
  <!-- Jar Neck -->
  <path d="M80,50 Q80,45 100,45 Q120,45 120,50" fill="none" stroke="#8B4513" stroke-width="3" />
  
  <!-- Jar Lid -->
  <ellipse cx="100" cy="40" rx="20" ry="10" fill="#8B4513" />
  <ellipse cx="100" cy="35" rx="15" ry="5" fill="#A0522D" />
  
  <!-- Honey Highlight -->
  <path d="M80,70 C90,65 100,75 110,70" fill="none" stroke="#FFD700" stroke-width="5" opacity="0.8" />
  <path d="M90,90 C100,85 110,95 120,90" fill="none" stroke="#FFD700" stroke-width="5" opacity="0.8" />
  <path d="M75,110 C85,105 95,115 105,110" fill="none" stroke="#FFD700" stroke-width="5" opacity="0.8" />
  
  <!-- Honey Drip -->
  <path d="M100,160 C100,170 100,180 95,190" fill="none" stroke="#FFC107" stroke-width="8" stroke-linecap="round" />
</svg>