<svg viewBox="0 0 200 200" xmlns="http://www.w3.org/2000/svg">
  <!-- Wings -->
  <ellipse cx="120" cy="80" rx="40" ry="30" fill="#C5E1F0" fill-opacity="0.6" transform="rotate(-15 120 80)" />
  <ellipse cx="125" cy="110" rx="35" ry="25" fill="#C5E1F0" fill-opacity="0.6" transform="rotate(-20 125 110)" />
  
  <!-- Body -->
  <ellipse cx="90" cy="100" rx="50" ry="40" fill="#FFC107" />
  
  <!-- Stripes -->
  <path d="M60,80 C70,75 110,75 120,80" fill="#8B4513" stroke="#8B4513" stroke-width="3" />
  <path d="M55,100 C70,95 110,95 125,100" fill="#8B4513" stroke="#8B4513" stroke-width="3" />
  <path d="M65,120 C75,115 105,115 115,120" fill="#8B4513" stroke="#8B4513" stroke-width="3" />
  
  <!-- Head -->
  <circle cx="45" cy="90" r="20" fill="#FFC107" />
  
  <!-- Eyes -->
  <circle cx="35" cy="85" r="5" fill="#FFFFFF" />
  <circle cx="35" cy="85" r="2" fill="#000000" />
  <circle cx="45" cy="80" r="5" fill="#FFFFFF" />
  <circle cx="45" cy="80" r="2" fill="#000000" />
  
  <!-- Smile -->
  <path d="M35,95 C40,100 45,100 50,95" fill="none" stroke="#000000" stroke-width="2" />
  
  <!-- Antennas -->
  <path d="M30,75 C25,65 30,55 35,50" fill="none" stroke="#000000" stroke-width="2" />
  <path d="M50,70 C55,60 50,50 45,45" fill="none" stroke="#000000" stroke-width="2" />
  <circle cx="35" cy="50" r="3" fill="#000000" />
  <circle cx="45" cy="45" r="3" fill="#000000" />
  
  <!-- Crown -->
  <path d="M25,70 L35,55 L45,70 L55,55 L65,70" fill="#FFD700" stroke="#E6B800" stroke-width="2" />
</svg>